<?xml version="1.0" standalone="no"?>
<!DOCTYPE svg PUBLIC "-//W3C//DTD SVG 20010904//EN"
 "http://www.w3.org/TR/2001/REC-SVG-20010904/DTD/svg10.dtd">
<svg version="1.0" xmlns="http://www.w3.org/2000/svg"
 width="430.000000pt" height="430.000000pt" viewBox="0 0 430.000000 430.000000"
 preserveAspectRatio="xMidYMid meet">
<metadata>
Created by potrace 1.11, written by Peter Selinger 2001-2013
</metadata>
<g transform="translate(0.000000,430.000000) scale(0.100000,-0.100000)"
fill="#000000" stroke="none">
<path d="M2120 4054 c-36 -7 -108 -35 -160 -60 -79 -39 -110 -62 -181 -134
-75 -75 -94 -100 -137 -191 -69 -141 -87 -229 -86 -399 2 -146 21 -243 69
-348 14 -30 24 -56 23 -57 -2 -2 -32 3 -68 11 -86 18 -219 17 -299 -1 -75 -18
-171 -63 -221 -105 l-35 -28 30 -7 c115 -24 172 -61 222 -144 45 -75 59 -149
44 -225 -17 -80 -54 -151 -166 -316 -103 -152 -151 -241 -183 -340 -85 -262
-34 -593 130 -847 152 -234 439 -430 672 -459 l51 -6 -40 33 c-269 221 -366
577 -235 857 45 96 104 173 250 328 198 209 269 314 301 444 16 69 14 226 -4
302 l-14 58 36 -30 c53 -41 172 -169 210 -224 83 -120 124 -260 125 -421 1
-174 -41 -284 -150 -393 -35 -35 -64 -65 -64 -67 0 -11 84 -25 146 -25 77 0
163 24 217 61 79 55 137 130 137 179 0 33 17 23 59 -32 48 -65 66 -107 86
-203 19 -93 19 -140 0 -250 -39 -224 -179 -439 -369 -570 -32 -22 -53 -41 -48
-43 18 -6 189 56 279 102 282 141 509 412 606 721 39 126 52 219 51 375 0 233
-48 410 -181 672 -120 237 -274 449 -582 802 -212 242 -253 306 -287 451 -31
133 1 251 87 329 49 44 119 76 168 76 14 0 33 4 41 10 11 6 -9 20 -80 54 -149
72 -301 92 -450 60z"/>
</g>
</svg>
